<svg xmlns="http://www.w3.org/2000/svg" width="149.254" height="148.992" viewBox="0 0 149.254 148.992">
  <g id="Componente_1_1" data-name="Componente 1 – 1" transform="translate(0 0)">
    <g id="Caminho_1" data-name="Caminho 1" transform="matrix(0.515, -0.857, 0.857, 0.515, 2.629, 99.094)" fill="none">
      <path d="M56.344,4.869a19.99,19.99,0,0,1,5.965-3.584c1.225-.4,4.1.678,4.633,1.276,0,0,10.607,12.184,23.888,28.174,4.515,5.437,9.96,11.441,14.446,16.643,8.207,9.515,9.328,11.02,9.328,11.02,1.735,1.931,3.3,6.136-1.329,9.691l-8.265,2.26L-2.172,85.069c-3.524-1.362-3.5-2.925-4.265-4.2-2.686-3.142,3.589-10.88,5.05-12.506L27.436,36.543Z" stroke="none"/>
      <path d="M 63.25836563110352 6.279731750488281 C 62.1125373840332 6.810157775878906 60.50249481201172 7.858039855957031 59.95757675170898 8.32635498046875 L 31.13410186767578 39.90810012817383 L 2.325592041015625 71.70878601074219 C 1.796730041503906 72.29840087890625 0.6355667114257813 73.71311187744141 -0.3984756469726563 75.31754302978516 C -1.477973937988281 76.99247741699219 -1.873130798339844 78.01957702636719 -2.016845703125 78.52188873291016 C -1.783592224121094 78.93698883056641 -1.611396789550781 79.31597137451172 -1.48016357421875 79.60476684570313 C -1.436416625976563 79.70106506347656 -1.381744384765625 79.82137298583984 -1.339859008789063 79.90753173828125 L 104.0047912597656 65.43877410888672 L 110.851676940918 63.56663131713867 C 111.1339721679688 63.26682281494141 111.304557800293 62.98931121826172 111.3236083984375 62.78281402587891 C 111.3522720336914 62.47214508056641 111.1177139282227 61.99906158447266 110.8839416503906 61.73891448974609 L 110.7505416870117 61.60218811035156 L 110.6023406982422 61.39652252197266 C 110.4293823242188 61.17423629760742 108.8655242919922 59.19493865966797 101.4893341064453 50.64314651489258 C 99.85075378417969 48.74343872070313 98.10712432861328 46.7627067565918 96.2611083984375 44.66568756103516 C 93.12327575683594 41.1012077331543 89.87860870361328 37.41537475585938 86.98300170898438 33.92900085449219 C 75.49595642089844 20.09838104248047 65.90982055664063 9.00274658203125 63.66611862182617 6.414344787597656 C 63.53616714477539 6.365692138671875 63.39231491088867 6.318252563476563 63.25836563110352 6.279731750488281 M 62.96109771728516 1.197105407714844 C 64.34574890136719 1.197105407714844 66.48512268066406 2.05224609375 66.94171142578125 2.560394287109375 C 66.94171142578125 2.560394287109375 77.54879760742188 14.74435424804688 90.82936096191406 30.73439407348633 C 95.34473419189453 36.17100143432617 100.7888793945313 42.1757698059082 105.275505065918 47.37741851806641 C 113.4821472167969 56.89202117919922 114.6031036376953 58.3970832824707 114.6031036376953 58.3970832824707 C 116.3382949829102 60.32818603515625 117.9032897949219 64.53299713134766 113.2736282348633 68.08793640136719 L 105.008544921875 70.34785461425781 L -2.171890258789063 85.06874847412109 C -5.696372985839844 83.70708465576172 -5.668937683105469 82.14414215087891 -6.437042236328125 80.86581420898438 C -9.122543334960938 77.72335815429688 -2.847808837890625 69.98539733886719 -1.386772155761719 68.35939788818359 L 27.43585968017578 36.54312515258789 L 56.34379196166992 4.86883544921875 C 56.9981689453125 4.140586853027344 60.15912628173828 1.979522705078125 62.30902099609375 1.284561157226563 C 62.49349975585938 1.224037170410156 62.71553039550781 1.197105407714844 62.96109771728516 1.197105407714844 Z" stroke="none" fill="#97caef"/>
    </g>
    <g id="Caminho_2" data-name="Caminho 2" transform="translate(124.351 129.968) rotate(-167)" fill="none">
      <path d="M37.474.816C38,.2,39.611-1.627,43.956-2.041c.172-.013,5.161,5.633,5.366,5.563C52.6,6.676,56.476,10.2,56.476,10.2S62.8,16.226,67.058,20.684c1.96,1.772,3.313,2.8,5.813,5.29a56.07,56.07,0,0,0,5.328,5.4c4.732,5.029,8.695,10.407,13.477,14.914,8.011,8.184,9.871,9.608,9.871,9.608,1.557,1.813,3.506,4.777-.648,8.116l-7.415,2.122L-2.678,79.961C-5.84,78.682-5.816,77.214-6.5,76.014-8.914,73.063-3.285,65.8-1.974,64.269l20.759-32.44Z" stroke="none"/>
      <path d="M 42.1217155456543 4.727127075195313 L 23.83910369873047 35.0628547668457 L 2.578742980957031 68.17737579345703 C 1.130638122558594 69.8642578125 -0.3993148803710938 72.28779602050781 -0.9239578247070313 73.64857482910156 L 91.83280181884766 60.36813354492188 L 96.14700317382813 59.13341522216797 C 94.64427947998047 57.74793243408203 92.02340698242188 55.21962738037109 87.56036376953125 50.65643310546875 C 84.48386383056641 47.75625228881836 81.75991821289063 44.56969451904297 79.12567901611328 41.48805236816406 C 77.41386413574219 39.48549270629883 75.683837890625 37.45823287963867 74.42448425292969 36.03973388671875 C 72.45046234130859 34.44183349609375 70.85417938232422 32.68251419067383 69.61488342285156 31.29367446899414 L 68.63430023193359 30.22267150878906 C 67.054443359375 28.64715194702148 65.96833801269531 27.70637130737305 64.86145782470703 26.74507141113281 L 62.72048187255859 24.82935333251953 C 58.57337951660156 20.48954010009766 52.43413925170898 14.63940811157227 52.43693542480469 14.63993835449219 C 52.43693923950195 14.63993835449219 52.43695449829102 14.63995361328125 52.43698883056641 14.63998031616211 C 52.37919235229492 14.58737182617188 48.49820327758789 11.05398559570313 45.19244003295898 7.879936218261719 C 44.36737823486328 7.148780822753906 43.41500854492188 6.127471923828125 42.1217155456543 4.727127075195313 M 43.95680618286133 -2.041229248046875 C 44.13824081420898 -2.041229248046875 49.05699920654297 3.522804260253906 49.31763458251953 3.522804260253906 C 49.31923675537109 3.522804260253906 49.32065200805664 3.522598266601563 49.3218994140625 3.522171020507813 C 52.60082244873047 6.6763916015625 56.47603988647461 10.20309448242188 56.47603988647461 10.20309448242188 C 56.47603988647461 10.20309448242188 62.79808044433594 16.22589492797852 67.05834197998047 20.68411254882813 C 69.01850128173828 22.45587158203125 70.37132263183594 23.48129272460938 72.87110137939453 25.97421264648438 C 74.03878021240234 27.14031219482422 75.77404022216797 29.41281127929688 78.19950103759766 31.37613296508789 C 82.93177795410156 36.40553283691406 86.89418029785156 41.78273391723633 91.67604064941406 46.29053497314453 C 99.68724060058594 54.47415161132813 101.5466995239258 55.89871215820313 101.5466995239258 55.89871215820313 C 103.1035003662109 57.71221160888672 105.0528411865234 60.67581176757813 100.8991241455078 64.01425170898438 L 93.48371887207031 66.13653564453125 L -2.678276062011719 79.96092987060547 C -5.840438842773438 78.68218994140625 -5.815818786621094 77.21443176269531 -6.504936218261719 76.01396942138672 C -8.914382934570313 73.06289672851563 -3.284698486328125 65.79617309570313 -1.973861694335938 64.26919555664063 L 18.7852783203125 31.82883453369141 L 37.4735221862793 0.8158721923828125 C 37.9984016418457 0.2044754028320313 39.61083984375 -1.627105712890625 43.95619964599609 -2.041206359863281 C 43.95639038085938 -2.041221618652344 43.95660400390625 -2.041229248046875 43.95680618286133 -2.041229248046875 Z" stroke="none" fill="#97caef"/>
    </g>
  </g>
</svg>
